<svg width="19" height="18" viewBox="0 0 19 18" fill="none" xmlns="http://www.w3.org/2000/svg">
<mask id="mask0_1557_2597" style="mask-type:luminance" maskUnits="userSpaceOnUse" x="10" y="0" width="9" height="8">
<path fill-rule="evenodd" clip-rule="evenodd" d="M10.9617 0.666992H18.0775V7.77767H10.9617V0.666992Z" fill="white"/>
</mask>
<g mask="url(#mask0_1557_2597)">
<path fill-rule="evenodd" clip-rule="evenodd" d="M17.4523 7.77767C17.1381 7.77767 16.8681 7.54184 16.8323 7.22267C16.5164 4.40934 14.3314 2.226 11.5173 1.9135C11.1748 1.87517 10.9273 1.56684 10.9656 1.2235C11.0031 0.881004 11.3089 0.628504 11.6556 0.671837C15.0539 1.04934 17.6931 3.68517 18.0739 7.08267C18.1123 7.426 17.8656 7.73517 17.5231 7.7735C17.4998 7.776 17.4756 7.77767 17.4523 7.77767" fill="white"/>
</g>
<path fill-rule="evenodd" clip-rule="evenodd" d="M14.5021 7.78647C14.2088 7.78647 13.948 7.5798 13.8896 7.28147C13.6496 6.04814 12.6988 5.0973 11.4671 4.85813C11.128 4.7923 10.9071 4.4648 10.973 4.12563C11.0388 3.78647 11.3721 3.5648 11.7055 3.63147C13.4396 3.96813 14.7788 5.30647 15.1163 7.04147C15.1821 7.38147 14.9613 7.70897 14.623 7.7748C14.5821 7.7823 14.5421 7.78647 14.5021 7.78647" fill="white"/>
<mask id="mask1_1557_2597" style="mask-type:luminance" maskUnits="userSpaceOnUse" x="0" y="0" width="18" height="18">
<path fill-rule="evenodd" clip-rule="evenodd" d="M0.666992 0.666504H17.7505V17.7503H0.666992V0.666504Z" fill="white"/>
</mask>
<g mask="url(#mask1_1557_2597)">
<path fill-rule="evenodd" clip-rule="evenodd" d="M2.6329 3.21779C2.63456 3.21779 2.5929 3.26112 2.5404 3.31279C2.33873 3.50862 1.92123 3.91612 1.91706 4.76862C1.9104 5.96112 2.69456 8.17529 6.4704 11.9503C10.2279 15.707 12.4387 16.5003 13.6346 16.5003H13.6521C14.5046 16.4953 14.9112 16.0778 15.1071 15.877C15.1662 15.8161 15.2146 15.7703 15.2487 15.7428C16.0796 14.907 16.5046 14.2861 16.5004 13.887C16.4954 13.4803 15.9896 13.0003 15.2904 12.3345C15.0679 12.1236 14.8262 11.8928 14.5712 11.6378C13.9096 10.9786 13.5837 11.0911 12.8629 11.3445C11.8671 11.6936 10.5029 12.172 8.37706 10.0445C6.2504 7.91862 6.72706 6.55445 7.07456 5.55779C7.32623 4.83779 7.44123 4.51029 6.7804 3.84862C6.52206 3.59029 6.28956 3.34529 6.0754 3.12029C5.41373 2.42529 4.93623 1.92279 4.53206 1.91695H4.5254C4.12623 1.91695 3.50623 2.34362 2.62873 3.22112C2.63123 3.21862 2.63206 3.21779 2.6329 3.21779V3.21779ZM13.6346 17.7503C11.5579 17.7503 8.8504 16.097 5.58706 12.8345C2.3104 9.55862 0.654562 6.84279 0.667062 4.76195C0.674562 3.38695 1.3954 2.68279 1.66623 2.41862C1.6804 2.40112 1.72873 2.35362 1.7454 2.33695C2.94123 1.14112 3.7629 0.649454 4.5479 0.666954C5.47873 0.679454 6.14206 1.37695 6.98123 2.25945C7.18873 2.47695 7.4129 2.71445 7.66373 2.96445C8.87956 4.18112 8.53373 5.17362 8.25456 5.97029C7.95123 6.83945 7.68873 7.58945 9.2604 9.16112C10.8321 10.7328 11.5812 10.4703 12.4496 10.1645C13.2471 9.88612 14.2371 9.53779 15.4554 10.7545C15.7029 11.002 15.9362 11.2236 16.1529 11.4295C17.0387 12.2728 17.7387 12.9386 17.7504 13.872C17.7596 14.667 17.2762 15.4786 16.0829 16.672L15.5546 16.3136L16.0021 16.7495C15.7379 17.0203 15.0354 17.742 13.6596 17.7503H13.6346Z" fill="white"/>
</g>
</svg>
