<svg width="15" height="17" viewBox="0 0 15 17" fill="none" xmlns="http://www.w3.org/2000/svg">
<path fill-rule="evenodd" clip-rule="evenodd" d="M7.70875 6.08301C6.90459 6.08301 6.25042 6.73717 6.25042 7.54217C6.25042 8.34634 6.90459 8.99967 7.70875 8.99967C8.51292 8.99967 9.16709 8.34634 9.16709 7.54217C9.16709 6.73717 8.51292 6.08301 7.70875 6.08301M7.70875 10.2497C6.21542 10.2497 5.00042 9.03551 5.00042 7.54217C5.00042 6.04801 6.21542 4.83301 7.70875 4.83301C9.20209 4.83301 10.4171 6.04801 10.4171 7.54217C10.4171 9.03551 9.20209 10.2497 7.70875 10.2497" fill="#2F80ED"/>
<mask id="mask0_1542_2135" style="mask-type:luminance" maskUnits="userSpaceOnUse" x="0" y="0" width="15" height="17">
<path fill-rule="evenodd" clip-rule="evenodd" d="M0.833336 0.666504H14.5829V16.9165H0.833336V0.666504Z" fill="white"/>
</mask>
<g mask="url(#mask0_1542_2135)">
<path fill-rule="evenodd" clip-rule="evenodd" d="M7.70792 1.9165C4.60625 1.9165 2.08292 4.464 2.08292 7.594C2.08292 11.5765 6.76958 15.4565 7.70792 15.6632C8.64625 15.4557 13.3329 11.5757 13.3329 7.594C13.3329 4.464 10.8096 1.9165 7.70792 1.9165V1.9165ZM7.70792 16.9165C6.21292 16.9165 0.832916 12.2898 0.832916 7.594C0.832916 3.774 3.91708 0.666504 7.70792 0.666504C11.4987 0.666504 14.5829 3.774 14.5829 7.594C14.5829 12.2898 9.20292 16.9165 7.70792 16.9165V16.9165Z" fill="#2F80ED"/>
</g>
</svg>
