<svg width="200" height="45" viewBox="0 0 200 45" fill="none" xmlns="http://www.w3.org/2000/svg">
<path d="M56.8295 22H54.6136L61.0227 4.54545H63.2045L69.6136 22H67.3977L62.1818 7.30682H62.0455L56.8295 22ZM57.6477 15.1818H66.5795V17.0568H57.6477V15.1818ZM72.3324 22V4.54545H78.4347C79.6506 4.54545 80.6534 4.75568 81.4432 5.17614C82.233 5.59091 82.821 6.15057 83.2074 6.85511C83.5938 7.55398 83.7869 8.32954 83.7869 9.18182C83.7869 9.93182 83.6534 10.5511 83.3864 11.0398C83.125 11.5284 82.7784 11.9148 82.3466 12.1989C81.9205 12.483 81.4574 12.6932 80.9574 12.8295V13C81.4915 13.0341 82.0284 13.2216 82.5682 13.5625C83.108 13.9034 83.5597 14.392 83.9233 15.0284C84.2869 15.6648 84.4688 16.4432 84.4688 17.3636C84.4688 18.2386 84.2699 19.0256 83.8722 19.7244C83.4744 20.4233 82.8466 20.9773 81.9886 21.3864C81.1307 21.7955 80.0142 22 78.6392 22H72.3324ZM74.446 20.125H78.6392C80.0199 20.125 81 19.858 81.5795 19.3239C82.1648 18.7841 82.4574 18.1307 82.4574 17.3636C82.4574 16.7727 82.3068 16.2273 82.0057 15.7273C81.7045 15.2216 81.2756 14.8182 80.7188 14.517C80.1619 14.2102 79.5028 14.0568 78.7415 14.0568H74.446V20.125ZM74.446 12.2159H78.3665C79.0028 12.2159 79.5767 12.0909 80.0881 11.8409C80.6051 11.5909 81.0142 11.2386 81.3153 10.7841C81.6222 10.3295 81.7756 9.79545 81.7756 9.18182C81.7756 8.41477 81.5085 7.7642 80.9744 7.23011C80.4403 6.69034 79.5938 6.42045 78.4347 6.42045H74.446V12.2159ZM101.987 10H99.8736C99.7486 9.39205 99.5298 8.85795 99.2173 8.39773C98.9105 7.9375 98.5355 7.55114 98.0923 7.23864C97.6548 6.92045 97.169 6.68182 96.6349 6.52273C96.1009 6.36364 95.544 6.28409 94.9645 6.28409C93.9077 6.28409 92.9503 6.55114 92.0923 7.08523C91.2401 7.61932 90.5611 8.40625 90.0554 9.44602C89.5554 10.4858 89.3054 11.7614 89.3054 13.2727C89.3054 14.7841 89.5554 16.0597 90.0554 17.0994C90.5611 18.1392 91.2401 18.9261 92.0923 19.4602C92.9503 19.9943 93.9077 20.2614 94.9645 20.2614C95.544 20.2614 96.1009 20.1818 96.6349 20.0227C97.169 19.8636 97.6548 19.6278 98.0923 19.3153C98.5355 18.9972 98.9105 18.608 99.2173 18.1477C99.5298 17.6818 99.7486 17.1477 99.8736 16.5455H101.987C101.828 17.4375 101.538 18.2358 101.118 18.9403C100.697 19.6449 100.175 20.2443 99.5497 20.7386C98.9247 21.2273 98.223 21.5994 97.4446 21.8551C96.6719 22.1108 95.8452 22.2386 94.9645 22.2386C93.4759 22.2386 92.152 21.875 90.9929 21.1477C89.8338 20.4205 88.9219 19.3864 88.2571 18.0455C87.5923 16.7045 87.2599 15.1136 87.2599 13.2727C87.2599 11.4318 87.5923 9.84091 88.2571 8.5C88.9219 7.15909 89.8338 6.125 90.9929 5.39773C92.152 4.67045 93.4759 4.30682 94.9645 4.30682C95.8452 4.30682 96.6719 4.43466 97.4446 4.69034C98.223 4.94602 98.9247 5.32102 99.5497 5.81534C100.175 6.30398 100.697 6.90057 101.118 7.60511C101.538 8.30398 101.828 9.10227 101.987 10ZM126.88 13.2727C126.88 15.1136 126.548 16.7045 125.883 18.0455C125.218 19.3864 124.306 20.4205 123.147 21.1477C121.988 21.875 120.664 22.2386 119.175 22.2386C117.687 22.2386 116.363 21.875 115.204 21.1477C114.045 20.4205 113.133 19.3864 112.468 18.0455C111.803 16.7045 111.471 15.1136 111.471 13.2727C111.471 11.4318 111.803 9.84091 112.468 8.5C113.133 7.15909 114.045 6.125 115.204 5.39773C116.363 4.67045 117.687 4.30682 119.175 4.30682C120.664 4.30682 121.988 4.67045 123.147 5.39773C124.306 6.125 125.218 7.15909 125.883 8.5C126.548 9.84091 126.88 11.4318 126.88 13.2727ZM124.835 13.2727C124.835 11.7614 124.582 10.4858 124.076 9.44602C123.576 8.40625 122.897 7.61932 122.039 7.08523C121.187 6.55114 120.232 6.28409 119.175 6.28409C118.119 6.28409 117.161 6.55114 116.303 7.08523C115.451 7.61932 114.772 8.40625 114.266 9.44602C113.766 10.4858 113.516 11.7614 113.516 13.2727C113.516 14.7841 113.766 16.0597 114.266 17.0994C114.772 18.1392 115.451 18.9261 116.303 19.4602C117.161 19.9943 118.119 20.2614 119.175 20.2614C120.232 20.2614 121.187 19.9943 122.039 19.4602C122.897 18.9261 123.576 18.1392 124.076 17.0994C124.582 16.0597 124.835 14.7841 124.835 13.2727ZM130.161 22V8.90909H132.173V14.6023H133.502L138.207 8.90909H140.798L135.513 15.2159L140.866 22H138.275L133.979 16.4773H132.173V22H130.161ZM151.813 14.5341V16.4091H144.586V14.5341H151.813ZM145.063 8.90909V22H143.052V8.90909H145.063ZM153.347 8.90909V22H151.336V8.90909H153.347ZM160.873 22.3068C160.043 22.3068 159.29 22.1506 158.614 21.8381C157.938 21.5199 157.401 21.0625 157.004 20.4659C156.606 19.8636 156.407 19.1364 156.407 18.2841C156.407 17.5341 156.555 16.9261 156.85 16.4602C157.146 15.9886 157.54 15.6193 158.035 15.3523C158.529 15.0852 159.075 14.8864 159.671 14.7557C160.273 14.6193 160.879 14.5114 161.487 14.4318C162.282 14.3295 162.927 14.2528 163.421 14.2017C163.921 14.1449 164.285 14.0511 164.512 13.9205C164.745 13.7898 164.862 13.5625 164.862 13.2386V13.1705C164.862 12.3295 164.631 11.6761 164.171 11.2102C163.717 10.7443 163.026 10.5114 162.1 10.5114C161.14 10.5114 160.387 10.7216 159.842 11.142C159.296 11.5625 158.913 12.0114 158.691 12.4886L156.782 11.8068C157.123 11.0114 157.577 10.392 158.146 9.94886C158.719 9.5 159.344 9.1875 160.021 9.01136C160.702 8.82955 161.373 8.73864 162.032 8.73864C162.452 8.73864 162.935 8.78977 163.481 8.89204C164.032 8.98864 164.563 9.19034 165.075 9.49716C165.592 9.80398 166.021 10.267 166.362 10.8864C166.702 11.5057 166.873 12.3352 166.873 13.375V22H164.862V20.2273H164.759C164.623 20.5114 164.396 20.8153 164.077 21.1392C163.759 21.4631 163.336 21.7386 162.808 21.9659C162.279 22.1932 161.634 22.3068 160.873 22.3068ZM161.18 20.5C161.975 20.5 162.646 20.3438 163.191 20.0312C163.742 19.7188 164.157 19.3153 164.435 18.821C164.719 18.3267 164.862 17.8068 164.862 17.2614V15.4205C164.776 15.5227 164.589 15.6165 164.299 15.7017C164.015 15.7812 163.685 15.8523 163.31 15.9148C162.941 15.9716 162.58 16.0227 162.228 16.0682C161.881 16.108 161.6 16.142 161.384 16.1705C160.862 16.2386 160.373 16.3494 159.918 16.5028C159.469 16.6506 159.106 16.875 158.827 17.1761C158.555 17.4716 158.418 17.875 158.418 18.3864C158.418 19.0852 158.677 19.6136 159.194 19.9716C159.717 20.3239 160.379 20.5 161.18 20.5Z" fill="black"/>
<path fill-rule="evenodd" clip-rule="evenodd" d="M0 0H10.25V2.5H2.5V20.25H0V0Z" fill="#3D7DBD"/>
<path fill-rule="evenodd" clip-rule="evenodd" d="M43.25 39V44.25H28V41.75H40.75V39H43.25Z" fill="#3D7DBD"/>
<path fill-rule="evenodd" clip-rule="evenodd" d="M23.5 24.5H2.5V41.5H23.5V24.5ZM0 22V44H26V22H0Z" fill="#154F7D"/>
<path fill-rule="evenodd" clip-rule="evenodd" d="M40.5 2.5H14.5V34.5H40.5V2.5ZM12 0V37H43V0H12Z" fill="#3D7DBD"/>
<path d="M59.408 30.6999V36.9999H58.526V31.4829H54.872V36.9999H53.981V30.6999H59.408Z" fill="black"/>
<path d="M63.8296 30.6999C64.6456 30.6999 65.2876 30.8949 65.7556 31.2849C66.2236 31.6749 66.4576 32.2119 66.4576 32.8959C66.4576 33.5799 66.2236 34.1169 65.7556 34.5069C65.2876 34.8969 64.6456 35.0919 63.8296 35.0919H62.2726V36.9999H61.3726V30.6999H63.8296ZM63.8026 34.3089C64.3726 34.3089 64.8076 34.1889 65.1076 33.9489C65.4076 33.7029 65.5576 33.3519 65.5576 32.8959C65.5576 32.4399 65.4076 32.0919 65.1076 31.8519C64.8076 31.6059 64.3726 31.4829 63.8026 31.4829H62.2726V34.3089H63.8026Z" fill="black"/>
<path d="M71.4881 35.4249H68.1401L67.4471 36.9999H66.5201L69.3731 30.6999H70.2641L73.1261 36.9999H72.1811L71.4881 35.4249ZM71.1731 34.7049L69.8141 31.6179L68.4551 34.7049H71.1731Z" fill="black"/>
<path d="M78.1374 33.7329C78.5634 33.8349 78.8844 34.0179 79.1004 34.2819C79.3224 34.5399 79.4334 34.8729 79.4334 35.2809C79.4334 35.8269 79.2324 36.2499 78.8304 36.5499C78.4344 36.8499 77.8554 36.9999 77.0934 36.9999H74.2134V30.6999H76.9224C77.6124 30.6999 78.1494 30.8409 78.5334 31.1229C78.9234 31.3989 79.1184 31.7979 79.1184 32.3199C79.1184 32.6619 79.0314 32.9529 78.8574 33.1929C78.6894 33.4329 78.4494 33.6129 78.1374 33.7329ZM75.1044 33.4719H76.8594C77.2974 33.4719 77.6304 33.3849 77.8584 33.2109C78.0924 33.0369 78.2094 32.7819 78.2094 32.4459C78.2094 32.1099 78.0924 31.8549 77.8584 31.6809C77.6244 31.5009 77.2914 31.4109 76.8594 31.4109H75.1044V33.4719ZM77.0754 36.2889C78.0414 36.2889 78.5244 35.9289 78.5244 35.2089C78.5244 34.8489 78.4014 34.5849 78.1554 34.4169C77.9154 34.2429 77.5554 34.1559 77.0754 34.1559H75.1044V36.2889H77.0754Z" fill="black"/>
<path d="M80.937 30.6999H81.828V35.5599L85.554 30.6999H86.382V36.9999H85.5V32.1489L81.765 36.9999H80.937V30.6999Z" fill="black"/>
<path d="M93.4151 30.6999V36.9999H92.5331V31.4829H89.7431L89.6801 33.3279C89.6501 34.1979 89.5781 34.9029 89.4641 35.4429C89.3561 35.9829 89.1821 36.3909 88.9421 36.6669C88.7021 36.9369 88.3781 37.0719 87.9701 37.0719C87.7841 37.0719 87.5951 37.0479 87.4031 36.9999L87.4661 36.1989C87.5621 36.2229 87.6581 36.2349 87.7541 36.2349C88.0121 36.2349 88.2191 36.1329 88.3751 35.9289C88.5311 35.7189 88.6481 35.4069 88.7261 34.9929C88.8041 34.5789 88.8551 34.0329 88.8791 33.3549L88.9781 30.6999H93.4151Z" fill="black"/>
<path d="M98.1404 32.8959C98.8904 32.8959 99.4634 33.0639 99.8594 33.3999C100.261 33.7359 100.462 34.2309 100.462 34.8849C100.462 35.5749 100.246 36.0999 99.8144 36.4599C99.3884 36.8199 98.7764 36.9999 97.9784 36.9999H95.3774V30.6999H96.2684V32.8959H98.1404ZM97.9424 36.2889C98.4644 36.2889 98.8634 36.1719 99.1394 35.9379C99.4214 35.6979 99.5624 35.3529 99.5624 34.9029C99.5624 34.0389 99.0224 33.6069 97.9424 33.6069H96.2684V36.2889H97.9424Z" fill="black"/>
<path d="M107.211 30.6999V36.9999H106.311V34.1919H102.693V36.9999H101.793V30.6999H102.693V33.4089H106.311V30.6999H107.211Z" fill="black"/>
<path d="M111.939 32.8959C112.689 32.8959 113.262 33.0639 113.658 33.3999C114.06 33.7359 114.261 34.2309 114.261 34.8849C114.261 35.5749 114.045 36.0999 113.613 36.4599C113.187 36.8199 112.575 36.9999 111.777 36.9999H109.176V30.6999H110.067V32.8959H111.939ZM111.741 36.2889C112.263 36.2889 112.662 36.1719 112.938 35.9379C113.22 35.6979 113.361 35.3529 113.361 34.9029C113.361 34.0389 112.821 33.6069 111.741 33.6069H110.067V36.2889H111.741ZM115.26 30.6999H116.151V36.9999H115.26V30.6999Z" fill="black"/>
<path d="M118.115 30.6999H119.006V35.5599L122.732 30.6999H123.56V36.9999H122.678V32.1489L118.943 36.9999H118.115V30.6999ZM120.824 30.2589C120.332 30.2589 119.951 30.1539 119.681 29.9439C119.417 29.7279 119.282 29.4219 119.276 29.0259H119.915C119.921 29.2599 120.002 29.4429 120.158 29.5749C120.32 29.7009 120.542 29.7639 120.824 29.7639C121.094 29.7639 121.31 29.7009 121.472 29.5749C121.64 29.4429 121.727 29.2599 121.733 29.0259H122.363C122.357 29.4159 122.219 29.7189 121.949 29.9349C121.685 30.1509 121.31 30.2589 120.824 30.2589Z" fill="black"/>
<path d="M131.865 33.7329C132.291 33.8349 132.612 34.0179 132.828 34.2819C133.05 34.5399 133.161 34.8729 133.161 35.2809C133.161 35.8269 132.96 36.2499 132.558 36.5499C132.162 36.8499 131.583 36.9999 130.821 36.9999H127.941V30.6999H130.65C131.34 30.6999 131.877 30.8409 132.261 31.1229C132.651 31.3989 132.846 31.7979 132.846 32.3199C132.846 32.6619 132.759 32.9529 132.585 33.1929C132.417 33.4329 132.177 33.6129 131.865 33.7329ZM128.832 33.4719H130.587C131.025 33.4719 131.358 33.3849 131.586 33.2109C131.82 33.0369 131.937 32.7819 131.937 32.4459C131.937 32.1099 131.82 31.8549 131.586 31.6809C131.352 31.5009 131.019 31.4109 130.587 31.4109H128.832V33.4719ZM130.803 36.2889C131.769 36.2889 132.252 35.9289 132.252 35.2089C132.252 34.8489 132.129 34.5849 131.883 34.4169C131.643 34.2429 131.283 34.1559 130.803 34.1559H128.832V36.2889H130.803Z" fill="black"/>
<path d="M137.428 32.8959C138.178 32.8959 138.751 33.0639 139.147 33.3999C139.549 33.7359 139.75 34.2309 139.75 34.8849C139.75 35.5749 139.534 36.0999 139.102 36.4599C138.676 36.8199 138.064 36.9999 137.266 36.9999H134.665V30.6999H135.556V32.8959H137.428ZM137.23 36.2889C137.752 36.2889 138.151 36.1719 138.427 35.9379C138.709 35.6979 138.85 35.3529 138.85 34.9029C138.85 34.0389 138.31 33.6069 137.23 33.6069H135.556V36.2889H137.23ZM140.749 30.6999H141.64V36.9999H140.749V30.6999Z" fill="black"/>
<path d="M143.603 30.6999H148.355V31.4649H144.494V33.2649H146.456C147.206 33.2649 147.776 33.4209 148.166 33.7329C148.556 34.0449 148.751 34.4949 148.751 35.0829C148.751 35.7009 148.538 36.1749 148.112 36.5049C147.692 36.8349 147.089 36.9999 146.303 36.9999H143.603V30.6999ZM146.267 36.2889C146.783 36.2889 147.176 36.1899 147.446 35.9919C147.716 35.7939 147.851 35.5029 147.851 35.1189C147.851 34.3569 147.323 33.9759 146.267 33.9759H144.494V36.2889H146.267Z" fill="black"/>
<path d="M153.021 37.0719C152.385 37.0719 151.812 36.9339 151.302 36.6579C150.792 36.3759 150.39 35.9889 150.096 35.4969C149.808 35.0049 149.664 34.4559 149.664 33.8499C149.664 33.2439 149.808 32.6949 150.096 32.2029C150.39 31.7109 150.792 31.3269 151.302 31.0509C151.812 30.7689 152.385 30.6279 153.021 30.6279C153.651 30.6279 154.221 30.7689 154.731 31.0509C155.241 31.3269 155.64 31.7109 155.928 32.2029C156.216 32.6889 156.36 33.2379 156.36 33.8499C156.36 34.4619 156.216 35.0139 155.928 35.5059C155.64 35.9919 155.241 36.3759 154.731 36.6579C154.221 36.9339 153.651 37.0719 153.021 37.0719ZM153.021 36.2709C153.483 36.2709 153.897 36.1659 154.263 35.9559C154.635 35.7459 154.926 35.4579 155.136 35.0919C155.352 34.7199 155.46 34.3059 155.46 33.8499C155.46 33.3939 155.352 32.9829 155.136 32.6169C154.926 32.2449 154.635 31.9539 154.263 31.7439C153.897 31.5339 153.483 31.4289 153.021 31.4289C152.559 31.4289 152.139 31.5339 151.761 31.7439C151.389 31.9539 151.095 32.2449 150.879 32.6169C150.669 32.9829 150.564 33.3939 150.564 33.8499C150.564 34.3059 150.669 34.7199 150.879 35.0919C151.095 35.4579 151.389 35.7459 151.761 35.9559C152.139 36.1659 152.559 36.2709 153.021 36.2709Z" fill="black"/>
<path d="M160.272 30.6999C161.088 30.6999 161.73 30.8949 162.198 31.2849C162.666 31.6749 162.9 32.2119 162.9 32.8959C162.9 33.5799 162.666 34.1169 162.198 34.5069C161.73 34.8969 161.088 35.0919 160.272 35.0919H158.715V36.9999H157.815V30.6999H160.272ZM160.245 34.3089C160.815 34.3089 161.25 34.1889 161.55 33.9489C161.85 33.7029 162 33.3519 162 32.8959C162 32.4399 161.85 32.0919 161.55 31.8519C161.25 31.6059 160.815 31.4829 160.245 31.4829H158.715V34.3089H160.245Z" fill="black"/>
</svg>
