<svg width="19" height="17" viewBox="0 0 19 17" fill="none" xmlns="http://www.w3.org/2000/svg">
<path fill-rule="evenodd" clip-rule="evenodd" d="M9.31408 10.2207C8.75658 10.2207 8.20075 10.0366 7.73575 9.66824L3.99825 6.65491C3.72908 6.43824 3.68742 6.04408 3.90325 5.77574C4.12075 5.50824 4.51408 5.46574 4.78242 5.68158L8.51658 8.69158C8.98575 9.06324 9.64658 9.06324 10.1191 8.68824L13.8157 5.68324C14.0841 5.46408 14.4774 5.50574 14.6957 5.77408C14.9132 6.04158 14.8724 6.43491 14.6049 6.65324L10.9016 9.66324C10.4332 10.0349 9.87325 10.2207 9.31408 10.2207" fill="#2F80ED"/>
<mask id="mask0_1542_59" style="mask-type:luminance" maskUnits="userSpaceOnUse" x="0" y="0" width="19" height="17">
<path fill-rule="evenodd" clip-rule="evenodd" d="M0.333336 0.666504H18.2499V16.9165H0.333336V0.666504Z" fill="white"/>
</mask>
<g mask="url(#mask0_1542_59)">
<path fill-rule="evenodd" clip-rule="evenodd" d="M5.19909 15.6665H13.3824C13.3841 15.6648 13.3908 15.6665 13.3958 15.6665C14.3466 15.6665 15.1899 15.3265 15.8366 14.6807C16.5874 13.9332 16.9999 12.859 16.9999 11.6565V5.93317C16.9999 3.60567 15.4783 1.9165 13.3824 1.9165H5.20075C3.10492 1.9165 1.58325 3.60567 1.58325 5.93317V11.6565C1.58325 12.859 1.99659 13.9332 2.74659 14.6807C3.39325 15.3265 4.23742 15.6665 5.18742 15.6665H5.19909ZM5.18492 16.9165C3.89909 16.9165 2.75075 16.4498 1.86409 15.5665C0.876585 14.5815 0.333252 13.1932 0.333252 11.6565V5.93317C0.333252 2.93067 2.42575 0.666504 5.20075 0.666504H13.3824C16.1574 0.666504 18.2499 2.93067 18.2499 5.93317V11.6565C18.2499 13.1932 17.7066 14.5815 16.7191 15.5665C15.8333 16.449 14.6841 16.9165 13.3958 16.9165H13.3824H5.20075H5.18492Z" fill="#2F80ED"/>
</g>
</svg>
