<svg width="17" height="18" viewBox="0 0 17 18" fill="none" xmlns="http://www.w3.org/2000/svg">
<path fill-rule="evenodd" clip-rule="evenodd" d="M8.5 1.9165C4.59416 1.9165 1.41666 5.094 1.41666 8.99984C1.41666 12.9057 4.59416 16.0832 8.5 16.0832C12.4058 16.0832 15.5833 12.9057 15.5833 8.99984C15.5833 5.094 12.4058 1.9165 8.5 1.9165M8.5 17.3332C3.905 17.3332 0.166664 13.5948 0.166664 8.99984C0.166664 4.40484 3.905 0.666504 8.5 0.666504C13.095 0.666504 16.8333 4.40484 16.8333 8.99984C16.8333 13.5948 13.095 17.3332 8.5 17.3332" fill="#2F80ED"/>
<path fill-rule="evenodd" clip-rule="evenodd" d="M11.3593 12.0768C11.2502 12.0768 11.1402 12.0484 11.0393 11.9893L7.89767 10.1151C7.70933 10.0018 7.59267 9.7976 7.59267 9.5776V5.5376C7.59267 5.1926 7.87267 4.9126 8.21767 4.9126C8.5635 4.9126 8.84267 5.1926 8.84267 5.5376V9.2226L11.6802 10.9143C11.976 11.0918 12.0735 11.4751 11.8968 11.7718C11.7793 11.9676 11.5718 12.0768 11.3593 12.0768" fill="#2F80ED"/>
</svg>
